<svg xmlns="http://www.w3.org/2000/svg" xmlns:xlink="http://www.w3.org/1999/xlink" viewBox="0 0 1648.34 1515.73"><defs><style>.cls-1{fill:url(#linear-gradient);}.cls-2{fill:url(#linear-gradient-2);}.cls-3{fill:url(#linear-gradient-3);}.cls-4{fill:url(#linear-gradient-4);}.cls-5{fill:url(#linear-gradient-5);}.cls-6{clip-path:url(#clip-path);}.cls-7{fill:url(#linear-gradient-7);}.cls-8{fill:url(#linear-gradient-8);}.cls-9{fill:url(#linear-gradient-9);}.cls-10{fill:url(#_3);}.cls-11{fill:url(#linear-gradient-10);}.cls-12{fill:url(#linear-gradient-11);}.cls-13{fill:url(#linear-gradient-12);}.cls-14{fill:url(#_5);}.cls-15{fill:url(#linear-gradient-13);}.cls-16{fill:url(#linear-gradient-14);}.cls-17{fill:url(#linear-gradient-15);}.cls-18,.cls-41{fill:#fff;}.cls-19{fill:url(#linear-gradient-16);}.cls-20{fill:url(#linear-gradient-17);}.cls-21{fill:url(#linear-gradient-18);}.cls-22{fill:url(#linear-gradient-19);}.cls-23{clip-path:url(#clip-path-2);}.cls-24{fill:url(#linear-gradient-21);}.cls-25{fill:url(#linear-gradient-22);}.cls-26{fill:url(#linear-gradient-23);}.cls-27{fill:url(#linear-gradient-24);}.cls-28{fill:url(#linear-gradient-25);}.cls-29{fill:url(#linear-gradient-26);}.cls-30{fill:url(#linear-gradient-27);}.cls-31{fill:url(#linear-gradient-28);}.cls-32{fill:url(#_5-2);}.cls-33{fill:url(#linear-gradient-29);}.cls-34{fill:url(#linear-gradient-30);}.cls-35{fill:url(#linear-gradient-31);}.cls-36{fill:url(#linear-gradient-32);}.cls-37{fill:url(#linear-gradient-33);}.cls-38{fill:url(#linear-gradient-34);}.cls-39{fill:url(#linear-gradient-35);}.cls-40{fill:url(#linear-gradient-36);}.cls-41{opacity:0.57;}.cls-42{fill:url(#linear-gradient-37);}.cls-43{fill:url(#linear-gradient-38);}.cls-44{fill:url(#linear-gradient-39);}.cls-45{fill:url(#linear-gradient-40);}.cls-46{fill:url(#linear-gradient-41);}.cls-47{fill:url(#linear-gradient-42);}.cls-48{fill:url(#linear-gradient-43);}.cls-49{fill:url(#linear-gradient-44);}.cls-50{fill:url(#linear-gradient-45);}.cls-51{fill:url(#linear-gradient-46);}.cls-52{fill:url(#linear-gradient-47);}.cls-53{fill:url(#linear-gradient-48);}.cls-54{fill:url(#linear-gradient-49);}.cls-55{fill:url(#linear-gradient-50);}.cls-56{fill:url(#linear-gradient-51);}.cls-57{fill:url(#linear-gradient-52);}.cls-58{fill:url(#linear-gradient-53);}.cls-59{fill:url(#linear-gradient-54);}.cls-60{fill:url(#linear-gradient-55);}.cls-61{fill:url(#linear-gradient-56);}.cls-62{fill:url(#linear-gradient-57);}.cls-63{fill:url(#linear-gradient-58);}.cls-64{fill:url(#linear-gradient-59);}.cls-65{fill:url(#linear-gradient-60);}.cls-66{fill:url(#linear-gradient-61);}.cls-67{fill:url(#linear-gradient-62);}.cls-68{fill:url(#linear-gradient-63);}.cls-69,.cls-70,.cls-71,.cls-72,.cls-73,.cls-74{fill-rule:evenodd;}.cls-69{fill:url(#linear-gradient-64);}.cls-70{fill:url(#linear-gradient-65);}.cls-71{fill:url(#linear-gradient-66);}.cls-72{fill:url(#linear-gradient-67);}.cls-73{fill:url(#linear-gradient-68);}.cls-74{fill:url(#linear-gradient-69);}.cls-75{fill:url(#linear-gradient-70);}.cls-76{fill:url(#linear-gradient-71);}.cls-77{fill:url(#linear-gradient-72);}.cls-78{fill:url(#linear-gradient-73);}.cls-79{fill:url(#linear-gradient-74);}.cls-80{fill:url(#linear-gradient-75);}.cls-81{fill:url(#linear-gradient-76);}.cls-82{fill:url(#linear-gradient-77);}.cls-83{fill:url(#linear-gradient-78);}.cls-84{fill:url(#linear-gradient-79);}.cls-85{fill:url(#linear-gradient-80);}</style><linearGradient id="linear-gradient" x1="800.61" y1="759.46" x2="1562.93" y2="759.46" gradientUnits="userSpaceOnUse"><stop offset="0" stop-color="#fdf53f"/><stop offset="1" stop-color="#d93c65"/></linearGradient><linearGradient id="linear-gradient-2" x1="642.47" y1="770.31" x2="1432.21" y2="770.31" xlink:href="#linear-gradient"/><linearGradient id="linear-gradient-3" x1="1149.03" y1="-378.46" x2="1129.53" y2="542.88" gradientUnits="userSpaceOnUse"><stop offset="0" stop-color="#cb236d"/><stop offset="1" stop-color="#4c246d"/></linearGradient><linearGradient id="linear-gradient-4" x1="1423.2" y1="271.4" x2="1065.15" y2="996.27" xlink:href="#linear-gradient"/><linearGradient id="linear-gradient-5" x1="893.66" y1="898.75" x2="1873.84" y2="-59.73" xlink:href="#linear-gradient"/><clipPath id="clip-path" transform="translate(-48.82 -23.12)"><path class="cls-1" d="M1562.73,1178.22a2.88,2.88,0,0,0-.38-2.78c-25.09-32.72-529.4-691.09-576.62-794.84-48.43-106.4-89.07-211.25-64.05-271.11,0,0-96.2,78-116.74,196.17C791.59,382.43,786.19,510,1153.27,993.33,1364.14,1271,1435.13,1370,1458.8,1404.56c5.15,7.52,16.12,6.07,19.38-2.55Z"/></clipPath><linearGradient id="linear-gradient-7" x1="1450.31" y1="1029.01" x2="1704.32" y2="1958.95" gradientUnits="userSpaceOnUse"><stop offset="0" stop-color="#50e7b7"/><stop offset="1" stop-color="#323992"/></linearGradient><linearGradient id="linear-gradient-8" x1="1632.38" y1="940.04" x2="1209.61" y2="1656.54" xlink:href="#linear-gradient"/><linearGradient id="linear-gradient-9" x1="947.18" y1="591.29" x2="936.37" y2="1019.59" gradientTransform="matrix(-1, 0, 0, 1, 2311.16, 0)" xlink:href="#linear-gradient"/><linearGradient id="_3" x1="1437.03" y1="781.24" x2="927.04" y2="1355.4" gradientUnits="userSpaceOnUse"><stop offset="0" stop-color="#fdf53f"/><stop offset="0.6" stop-color="#e78556"/><stop offset="1" stop-color="#d93c65"/></linearGradient><linearGradient id="linear-gradient-10" x1="940.32" y1="149.96" x2="1242.17" y2="832.99" xlink:href="#linear-gradient"/><linearGradient id="linear-gradient-11" x1="1645.4" y1="897.39" x2="1205.53" y2="1510.21" xlink:href="#linear-gradient"/><linearGradient id="linear-gradient-12" x1="1046.73" y1="140.48" x2="836.92" y2="949.43" gradientUnits="userSpaceOnUse"><stop offset="0" stop-color="#53d8ff"/><stop offset="1" stop-color="#3840f7"/></linearGradient><linearGradient id="_5" x1="1479.87" y1="-299.76" x2="1521.9" y2="154.45" gradientTransform="matrix(-1, 0, 0, 1, 2311.16, 0)" gradientUnits="userSpaceOnUse"><stop offset="0" stop-color="#fdf53f"/><stop offset="0.86" stop-color="#de5660"/><stop offset="1" stop-color="#d93c65"/></linearGradient><linearGradient id="linear-gradient-13" x1="1013.3" y1="153.62" x2="972.35" y2="599.68" xlink:href="#linear-gradient"/><linearGradient id="linear-gradient-14" x1="1127.58" y1="384.77" x2="1149.16" y2="768.98" xlink:href="#linear-gradient"/><linearGradient id="linear-gradient-15" x1="3696.38" y1="-809.56" x2="2386.52" y2="1581.19" gradientTransform="translate(-1374.93)" xlink:href="#linear-gradient"/><linearGradient id="linear-gradient-16" x1="1412.34" y1="723.13" x2="964.18" y2="1410.45" xlink:href="#linear-gradient"/><linearGradient id="linear-gradient-17" x1="1746.66" y1="470.88" x2="446.01" y2="2844.83" gradientTransform="matrix(-1, 0, 0, 1, 2311.16, 0)" xlink:href="#linear-gradient"/><linearGradient id="linear-gradient-18" x1="1610.01" y1="386.44" x2="300.29" y2="2776.94" gradientTransform="matrix(-1, 0, 0, 1, 2311.16, 0)" xlink:href="#linear-gradient"/><linearGradient id="linear-gradient-19" x1="1068.36" y1="124.81" x2="487.57" y2="786.63" xlink:href="#linear-gradient"/><clipPath id="clip-path-2" transform="translate(-48.82 -23.12)"><path class="cls-2" d="M646.34,1233.88a39.2,39.2,0,0,1,4.22-40.83c89.13-114.36,553.68-713.38,625.08-866.09,79-169,38.32-212,38.32-212S1437.51,254.78,1432,350.82c-6,105.38-20,212.7-227.91,467.37C1040.61,1018.51,814,1338.92,758,1419.8c-6,8.65-18.5,7.57-23.1-2Z"/></clipPath><linearGradient id="linear-gradient-21" x1="702.17" y1="1201.74" x2="549.39" y2="1724.64" xlink:href="#linear-gradient-12"/><linearGradient id="linear-gradient-22" x1="1159.11" y1="198.75" x2="-141.54" y2="2572.7" xlink:href="#linear-gradient"/><linearGradient id="linear-gradient-23" x1="835.17" y1="591.32" x2="824.35" y2="1019.62" xlink:href="#linear-gradient"/><linearGradient id="linear-gradient-24" x1="837.88" y1="554.89" x2="893.13" y2="1231.65" xlink:href="#linear-gradient"/><linearGradient id="linear-gradient-25" x1="970.51" y1="524.4" x2="1358.82" y2="1487.39" xlink:href="#linear-gradient"/><linearGradient id="linear-gradient-26" x1="5187.99" y1="865.9" x2="3908.64" y2="3200.98" gradientTransform="matrix(-1, 0, 0, 1, 5804.36, 0)" xlink:href="#linear-gradient"/><linearGradient id="linear-gradient-27" x1="1093.77" y1="55.99" x2="1542.94" y2="600.8" xlink:href="#linear-gradient"/><linearGradient id="linear-gradient-28" x1="1216.82" y1="-16.68" x2="1231.97" y2="433.46" xlink:href="#linear-gradient"/><linearGradient id="_5-2" x1="1367.86" y1="-299.73" x2="1409.89" y2="154.48" gradientTransform="matrix(1, 0, 0, 1, 0, 0)" xlink:href="#_5"/><linearGradient id="linear-gradient-29" x1="1282.71" y1="574.91" x2="-17.76" y2="2948.55" xlink:href="#linear-gradient-12"/><linearGradient id="linear-gradient-30" x1="1158.42" y1="188.79" x2="1096.6" y2="563.16" xlink:href="#linear-gradient"/><linearGradient id="linear-gradient-31" x1="3808.39" y1="-809.53" x2="2498.54" y2="1581.22" gradientTransform="matrix(-1, 0, 0, 1, 3686.08, 0)" xlink:href="#linear-gradient"/><linearGradient id="linear-gradient-32" x1="1047.86" y1="1029.73" x2="825.39" y2="1636.68" xlink:href="#linear-gradient"/><linearGradient id="linear-gradient-33" x1="1634.64" y1="470.91" x2="333.99" y2="2844.86" xlink:href="#linear-gradient"/><linearGradient id="linear-gradient-34" x1="1321.08" y1="804.97" x2="631.55" y2="1415.46" xlink:href="#linear-gradient"/><linearGradient id="linear-gradient-35" x1="1462.05" y1="366.42" x2="150.99" y2="2759.39" xlink:href="#linear-gradient-7"/><linearGradient id="linear-gradient-36" x1="3016.16" y1="-1179.01" x2="3222.24" y2="-361.56" gradientTransform="matrix(-0.67, 0.75, 0.75, 0.67, 2968.33, -979.22)" gradientUnits="userSpaceOnUse"><stop offset="0" stop-color="#b37cff"/><stop offset="1" stop-color="#f895e7"/></linearGradient><linearGradient id="linear-gradient-37" x1="1703.67" y1="895.46" x2="3001.29" y2="1425.38" gradientTransform="matrix(0.92, 0.33, -0.31, 0.94, -1070.41, -847.69)" gradientUnits="userSpaceOnUse"><stop offset="0" stop-color="#a737d5"/><stop offset="1" stop-color="#ef497a"/></linearGradient><linearGradient id="linear-gradient-38" x1="-4419.45" y1="630.61" x2="-4011.32" y2="1261.36" gradientTransform="matrix(1, 0, 0, -1, 4775.05, 1322.11)" xlink:href="#linear-gradient"/><linearGradient id="linear-gradient-39" x1="-4976.14" y1="1505.82" x2="-4902.31" y2="1505.82" gradientTransform="matrix(-1, 0, 0, 1, -4024.45, 0)" gradientUnits="userSpaceOnUse"><stop offset="0" stop-color="#2b3582"/><stop offset="1" stop-color="#150e42"/></linearGradient><linearGradient id="linear-gradient-40" x1="-4968.65" y1="1471.52" x2="-4938.71" y2="1471.52" gradientTransform="matrix(-1, 0, 0, 1, -4024.45, 0)" gradientUnits="userSpaceOnUse"><stop offset="0" stop-color="#f9b776"/><stop offset="1" stop-color="#f47960"/></linearGradient><linearGradient id="linear-gradient-41" x1="-4819.14" y1="1504.64" x2="-4703.3" y2="1504.64" xlink:href="#linear-gradient-39"/><linearGradient id="linear-gradient-42" x1="-4817.38" y1="1458.22" x2="-4787.6" y2="1458.22" xlink:href="#linear-gradient-40"/><linearGradient id="linear-gradient-43" x1="-4715.92" y1="981.11" x2="-5070.4" y2="1458.3" gradientTransform="matrix(-1, 0, 0, 1, -4024.45, 0)" xlink:href="#linear-gradient-7"/><linearGradient id="linear-gradient-44" x1="697.08" y1="917.07" x2="1033.79" y2="1139.1" xlink:href="#linear-gradient-7"/><linearGradient id="linear-gradient-45" x1="-4615.93" y1="564.07" x2="-4779.54" y2="764.69" gradientTransform="matrix(-1, 0, 0, 1, -4024.45, 0)" xlink:href="#linear-gradient-7"/><linearGradient id="linear-gradient-46" x1="-4618.16" y1="586.33" x2="-4507.49" y2="586.33" xlink:href="#linear-gradient-40"/><linearGradient id="linear-gradient-47" x1="-4745.43" y1="797.68" x2="-4806" y2="1371.38" gradientTransform="matrix(-1, 0, 0, 1, -4024.45, 0)" xlink:href="#linear-gradient-7"/><linearGradient id="linear-gradient-48" x1="-4367.58" y1="610.46" x2="-4606.69" y2="907.94" xlink:href="#linear-gradient-40"/><linearGradient id="linear-gradient-49" x1="-4322.24" y1="646.9" x2="-4561.36" y2="944.38" xlink:href="#linear-gradient-40"/><linearGradient id="linear-gradient-50" x1="-4636.58" y1="430.68" x2="-4868.16" y2="856.19" xlink:href="#linear-gradient-40"/><linearGradient id="linear-gradient-51" x1="-3311.73" y1="33.89" x2="-3414.08" y2="169.29" gradientTransform="matrix(-0.82, -0.58, -0.58, 0.82, -2001.02, -1428.5)" xlink:href="#linear-gradient-40"/><linearGradient id="linear-gradient-52" x1="-3389.9" y1="66.56" x2="-3267.64" y2="66.56" gradientTransform="matrix(-0.82, -0.58, -0.58, 0.82, -2001.02, -1428.5)" xlink:href="#linear-gradient-39"/><linearGradient id="linear-gradient-53" x1="-3461.63" y1="141.12" x2="-3379.54" y2="56.9" gradientTransform="matrix(-0.82, -0.58, -0.58, 0.82, -2001.02, -1428.5)" xlink:href="#linear-gradient-40"/><linearGradient id="linear-gradient-54" x1="-2112.28" y1="1226.98" x2="-2420.24" y2="1447.17" gradientTransform="translate(2459.5)" gradientUnits="userSpaceOnUse"><stop offset="0" stop-color="#18459f"/><stop offset="1" stop-color="#2874b5"/></linearGradient><linearGradient id="linear-gradient-55" x1="-2069.04" y1="1281.62" x2="-2184.07" y2="1455.6" xlink:href="#linear-gradient-54"/><linearGradient id="linear-gradient-56" x1="-2185.97" y1="1254.24" x2="-2439.03" y2="1488.07" gradientTransform="translate(2410.67 -23.12)" xlink:href="#linear-gradient-54"/><linearGradient id="linear-gradient-57" x1="-2281.98" y1="1149.45" x2="-2532.14" y2="1380.6" xlink:href="#linear-gradient-54"/><linearGradient id="linear-gradient-58" x1="734.84" y1="1384.33" x2="802.15" y2="1384.33" gradientTransform="matrix(-1, -0.02, -0.02, 1, 1063.29, 30.67)" xlink:href="#linear-gradient-40"/><linearGradient id="linear-gradient-59" x1="153.52" y1="1288.15" x2="221.44" y2="1288.15" gradientTransform="matrix(-0.99, -0.14, -0.14, 0.99, 548.95, 160.1)" xlink:href="#linear-gradient-40"/><linearGradient id="linear-gradient-60" x1="-2816.58" y1="-284.03" x2="-2780.42" y2="-284.03" gradientTransform="translate(2016.5 -631.31) rotate(-54.02)" gradientUnits="userSpaceOnUse"><stop offset="0" stop-color="#2c759e"/><stop offset="1" stop-color="#051042"/></linearGradient><linearGradient id="linear-gradient-61" x1="-2764.97" y1="-216.74" x2="-2729.03" y2="-216.74" xlink:href="#linear-gradient-60"/><linearGradient id="linear-gradient-62" x1="2066.98" y1="1287.51" x2="2210.85" y2="1287.51" gradientTransform="matrix(-0.98, 0.21, 0.21, 0.98, 2035.42, -397.6)" xlink:href="#linear-gradient-39"/><linearGradient id="linear-gradient-63" x1="259.52" y1="1042.28" x2="98.79" y2="1429.68" xlink:href="#linear-gradient-12"/><linearGradient id="linear-gradient-64" x1="1899.51" y1="1603.23" x2="1883.25" y2="1473.15" gradientTransform="translate(-2051.79 218.11) rotate(-19.91)" gradientUnits="userSpaceOnUse"><stop offset="0" stop-color="#c4421b"/><stop offset="1" stop-color="#5c0e16"/></linearGradient><linearGradient id="linear-gradient-65" x1="2377.75" y1="1154.9" x2="2409.5" y2="1035.83" gradientTransform="translate(-2191.82)" xlink:href="#linear-gradient-40"/><linearGradient id="linear-gradient-66" x1="2333.71" y1="950.65" x2="2010.66" y2="1297.73" gradientTransform="matrix(0.9, -0.43, 0.43, 0.9, -2045.58, 336.29)" xlink:href="#linear-gradient-39"/><linearGradient id="linear-gradient-67" x1="1858.47" y1="1596.9" x2="1845.56" y2="1493.66" gradientTransform="translate(-2051.79 218.11) rotate(-19.91)" xlink:href="#linear-gradient-40"/><linearGradient id="linear-gradient-68" x1="2436.59" y1="902.63" x2="2113.54" y2="1249.71" gradientTransform="translate(-2051.79 218.11) rotate(-19.91)" xlink:href="#linear-gradient-39"/><linearGradient id="linear-gradient-69" x1="1820.33" y1="1600.41" x2="1807.63" y2="1498.8" gradientTransform="translate(-2051.79 218.11) rotate(-19.91)" xlink:href="#linear-gradient-40"/><linearGradient id="linear-gradient-70" x1="-1825.43" y1="1043.57" x2="-2175.06" y2="1548.75" gradientTransform="matrix(-1, 0, 0, 1, -1380.16, 0)" xlink:href="#linear-gradient-54"/><linearGradient id="linear-gradient-71" x1="-1476.93" y1="1189.14" x2="-1833.86" y2="1635.8" gradientTransform="matrix(-1, 0, 0, 1, -1380.16, 0)" xlink:href="#linear-gradient-54"/><linearGradient id="linear-gradient-72" x1="-1525.98" y1="894.68" x2="-2052" y2="1449.02" gradientTransform="matrix(1, 0, 0, -1, 2269.98, 2419.75)" xlink:href="#linear-gradient-54"/><linearGradient id="linear-gradient-73" x1="2888.95" y1="4098.82" x2="3558.87" y2="4087.65" gradientTransform="translate(-4665.18 2423.42) rotate(-68.17)" xlink:href="#linear-gradient-40"/><linearGradient id="linear-gradient-74" x1="-1558.53" y1="1161.58" x2="-1603.08" y2="1265.42" gradientTransform="matrix(-1, 0, 0, 1, -1380.16, 0)" xlink:href="#linear-gradient-12"/><linearGradient id="linear-gradient-75" x1="-1798.37" y1="1036.97" x2="-1592.56" y2="1460.71" gradientTransform="matrix(1, 0, 0, -1, 2128.84, 2254.58)" xlink:href="#linear-gradient"/><linearGradient id="linear-gradient-76" x1="544.68" y1="998.13" x2="337.48" y2="1382.04" gradientTransform="translate(949.94 2254.58) rotate(-180)" xlink:href="#linear-gradient-3"/><linearGradient id="linear-gradient-77" x1="-1903.31" y1="1061.46" x2="-2402" y2="1678.78" gradientTransform="matrix(1, 0, 0, -1, 2532.82, 2254.58)" xlink:href="#linear-gradient-12"/><linearGradient id="linear-gradient-78" x1="-1861.47" y1="904.83" x2="-2360.17" y2="1522.14" gradientTransform="matrix(1, 0, 0, -1, 2538.45, 2051.87)" xlink:href="#linear-gradient"/><linearGradient id="linear-gradient-79" x1="-1855.93" y1="976.7" x2="-1884.26" y2="1306.35" gradientTransform="matrix(1, 0, 0, -1, 2340.43, 2055.03)" xlink:href="#linear-gradient-12"/><linearGradient id="linear-gradient-80" x1="534.63" y1="709.58" x2="328.23" y2="1128.54" gradientTransform="translate(757.55 2051.87) rotate(-180)" xlink:href="#linear-gradient-12"/></defs><title>inicio</title><g id="Illustration"><path class="cls-3" d="M1388.24,306.52s-234.88-275.8-507-17.73l18.64-157.6s192-218.67,421.29-9.85C1321.13,121.34,1384.51,208,1388.24,306.52Z" transform="translate(-48.82 -23.12)"/><path class="cls-4" d="M1562.73,1178.91a2.86,2.86,0,0,0-.38-2.77C1537.26,1143.42,1033,485,985.73,381.29c-48.43-106.39-89.07-211.24-64.05-271.1,0,0-96.2,78-116.74,196.17C791.59,383.13,786.19,510.73,1153.27,994c210.87,277.63,281.86,376.68,305.53,411.24,5.15,7.52,16.12,6.07,19.38-2.55Z" transform="translate(-48.82 -23.12)"/><path class="cls-5" d="M658.63,1218.64a38.81,38.81,0,0,1,4.19-40.44C751.1,1064.92,1211.26,471.57,1282,320.31c78.3-167.45,26.58-210,26.58-210s115.1,121.37,120.69,225.77-29.83,244.28-218.1,470.83c-163.64,196.89-386.41,515.8-441.92,595.91a13.12,13.12,0,0,1-22.89-2Z" transform="translate(-48.82 -23.12)"/><path class="cls-1" d="M1562.73,1178.22a2.88,2.88,0,0,0-.38-2.78c-25.09-32.72-529.4-691.09-576.62-794.84-48.43-106.4-89.07-211.25-64.05-271.11,0,0-96.2,78-116.74,196.17C791.59,382.43,786.19,510,1153.27,993.33,1364.14,1271,1435.13,1370,1458.8,1404.56c5.15,7.52,16.12,6.07,19.38-2.55Z" transform="translate(-48.82 -23.12)"/><g class="cls-6"><path class="cls-7" d="M1506.75,1420.28c-6-11.27-15.16-34.31-2.63-54.55,16.34-26.41,81.54,13.17,49.07,53.9-2.39,3-.34,7.59,3.37,7.59h67.29v-76.6c0-6.48,6.39-10.73,11.92-7.93,7.78,3.93,18.53,8.42,29.64,10.09,21.43,3.24,34.16-22.65,31.37-44.23s-27.29-34.52-39.54-32.36c-5.69,1-13.25,6.26-19.72,11.6-5.48,4.52-13.48.43-13.48-6.92v-74.8h-65c-5.33,0-8.35-6.45-5.12-10.94,13.6-18.87,7.61-42.32-11-49.47-22.46-8.63-42.88-2.16-45.94,22.65s14,37.76,14,37.76h-71.31l2.57,75.13c.24,7.16-7.23,11.58-12.9,7.67-7.25-5-16.82-10.09-27.29-11.6-22.45-3.24-42.87,16.18-42.87,36.68s17.35,45.31,44.91,39.91a110.18,110.18,0,0,0,22.28-6.49c5.46-2.35,11.41,1.94,11.41,8.17v71.68h65.18C1506.32,1427.22,1508.42,1423.38,1506.75,1420.28Z" transform="translate(-48.82 -23.12)"/><path class="cls-8" d="M1629.63,1130.47c7.84,4.93,18,10.19,26.78,11.29,17.35,2.16,33.69-20.5,30.62-47.47-2.6-22.92-31-43.51-57-24-5.61,4.21-13.39-.31-13.39-7.59V994.53h-59.48c-6.73,0-10.4,8.13-6.31,13.78,17.11,23.65,21,60.76-22,59-38.44-1.56-31.31-34.81-24.46-53,2.11-5.61-1.74-11.69-7.46-11.69h-60v67.47c0,7.08,7.51,11.28,13,7.26,6.87-5,15.37-10,22.7-11.09,15.31-2.15,35.73,10.79,35.73,32.37s-6.13,42.07-31.65,39.91a73.18,73.18,0,0,1-27.73-8c-5.57-2.9-12.08,1.29-12.08,7.86v75.16h27c12.82,0,25.5,1.33,38.33,2,3.88.2,8.5,0,10.6-3.43a7.71,7.71,0,0,0,.11-7.06c-2.28-4.9-8.33-7.29-11.48-11.8a32.11,32.11,0,0,1-5.37-14.81c-2-17.26,21.51-29,40.9-27.41,15.27,1.28,33,25.66,24.87,47.08-2.83,7.41,2.56,15.45,10.12,15.45h44.64v-75.3C1616.6,1131.2,1623.88,1126.86,1629.63,1130.47Z" transform="translate(-48.82 -23.12)"/><path class="cls-9" d="M1449,1130.56a73.18,73.18,0,0,0,27.73,8c25.52,2.16,31.65-18.34,31.65-39.91s-20.42-34.52-35.73-32.37c-7.33,1-15.83,6.1-22.7,11.09-5.52,4-13-.18-13-7.26V1002.6h-61.09c-6.21,0-10.18-7.17-7-12.78,3.75-6.52,6.8-16.19,6.8-30.38,0-36.68-40.83-51.78-52.36-21.57-7.65,20-5.15,42-2.61,54.46,1.08,5.29-2.74,10.27-7.87,10.27h-64.76V1068c0,7.75,8.1,12.49,14.27,8.31,7.64-5.18,16.74-10.66,23-12.25,12.79-3.24,36.21,11.86,37.23,37.75s-11.23,36.68-35.73,38.84a40.86,40.86,0,0,1-25-6c-6.14-3.71-13.78,1.21-13.78,8.68v70.2h59.22c7.3,0,12.49-7.45,10.33-14.81-5.12-17.44-7.49-44.41,25.38-47.3,40.31-3.55,38.9,20.93,28.15,46-3.22,7.53,2.06,16.06,9.88,16.06h55.89v-75.16C1436.93,1131.85,1443.44,1127.66,1449,1130.56Z" transform="translate(-48.82 -23.12)"/><path class="cls-10" d="M1320.71,992.33c-2.54-12.5-5-34.43,2.61-54.46,11.53-30.21,52.36-15.11,52.36,21.57,0,14.19-3,23.86-6.8,30.38-3.22,5.61.75,12.78,7,12.78h61.09V928.5c0-6.82,7-11,12.58-7.57,6.28,3.78,14.4,7.23,23.15,7.23,19.4,0,38.79-24.81,35.73-47.47s-19.08-38.83-35.57-34.52c-7.55,2-15.71,7.64-22.34,13.19-5.48,4.6-13.55.54-13.55-6.85V773.89h-55.71c-6.72,0-11.28-7.29-8.57-13.79,10.72-25.67,2.18-65.78-39.84-44.46-29.13,14.77-28.1,31.65-21.86,43.42,3.53,6.64-.88,14.83-8.08,14.83h-54.29l.41,72c0,7.53-7.6,12.33-13.82,8.64a58.06,58.06,0,0,0-34.05-8.34c-29.29,2.16-40.83,22.65-41.85,45.31s20.41,46.39,45.93,39.91a87.42,87.42,0,0,0,28.51-13.54c6.14-4.34,14.37.44,14.37,8.24v76.51h64.76C1318,1002.6,1321.79,997.62,1320.71,992.33Z" transform="translate(-48.82 -23.12)"/><path class="cls-11" d="M1177.6,545.54c5.87-10.68,10.38-25,1.16-35.8-16.65-19.42-50-23.73-58.29,6.47-3.44,12.5-1,22.21,3,29.31,3.74,6.56-.87,14.84-8.23,14.84h-53.09v73.41a7.88,7.88,0,0,0,12.44,6.65c35.61-25.62,54.18,4.6,54.22,18.19.05,15.11-6.29,50.71-29.19,49.63a55,55,0,0,1-25.58-8,7.89,7.89,0,0,0-11.89,7v68.42h54.94c6.52,0,10.41,7.47,6.86,13.14-4.07,6.52-7.49,16-7.67,29.41-.48,34.24,50,28.05,62.45,17.27,8.92-7.71,9.29-32.42,2.34-47.7a8.61,8.61,0,0,1,7.68-12.12h53.48V700.85a6.78,6.78,0,0,1,10.25-6c9.2,5.67,23.41,12.78,37.63,13.42,23.94,1.08,27.06-27,28.1-48.55.92-19.05-33.09-41.48-60.76-22.67a6.77,6.77,0,0,1-10.55-5.81V560.36h-61.08C1178.5,560.36,1174,552.16,1177.6,545.54Z" transform="translate(-48.82 -23.12)"/><path class="cls-12" d="M1232.08,1350a75.89,75.89,0,0,1-28.72,8.25c-26.42,2.23-32.77-19-32.77-41.34s21.14-35.74,37-33.51c7.59,1.07,16.4,6.31,23.51,11.48,5.72,4.16,13.49-.18,13.49-7.52v-69.87h63.26c8.06,0,8.44-7.85,7.64-14.09a165.42,165.42,0,0,1-1.47-28.92c.27-5.69,1-11.65,4-16.32,4.63-7,13.36-9.31,21.4-9.92,6.92-.52,14-.12,20.52,2.41s12.41,7.37,15.36,14c3.58,8.07,2.39,17.79-1.17,25.88-1.36,3.1-3.08,6.15-3.31,9.56-.37,5.42,3.26,10.45,7.76,13.1,11.09,6.53,26.07,4.29,38.23,4.29h23.29v67.76c0,8-8.39,12.94-14.78,8.6-7.91-5.36-17.33-11-23.84-12.68-13.24-3.35-37.49,12.28-38.55,39.09-.45,11.45,1.68,27.31,13,31.92,13,5.27,28.51,4.64,41.35-.75,3.59-1.51,7.09-3.4,10.92-4s8.18.57,10.32,4a12.68,12.68,0,0,1,1.61,5.25c1.71,14.84-.07,31.44-.07,46.45V1436h-61.33c-7.55,0-12.93-7.72-10.7-15.34,5.31-18.06,7.76-46-26.28-49-41.74-3.67-40.28,21.68-29.15,47.69,3.34,7.8-2.13,16.63-10.23,16.63h-57.87v-77.83C1244.59,1351.34,1237.85,1347,1232.08,1350Z" transform="translate(-48.82 -23.12)"/><path class="cls-13" d="M988.32,330.93c8.69-13.34,17.19-37.05-14.37-55.17-16.44-9.44-36.74,5.36-39,31.26-1.14,12.81,1.61,22.26,4.67,28.53,2.12,4.34-1,9.49-5.6,9.49H873.46v70.53c0,7-7.18,11.36-12.91,7.86-39.66-24.22-56.49,14.85-55.8,24.64.76,10.79,6.38,44.23,29.86,44.23a54.89,54.89,0,0,0,26.3-7c5.79-3.15,12.68,1.14,12.68,8v60.76h57.86c6.53,0,11.09,6.91,8.75,13.36-3.34,9.21-6.63,22.22-5.55,35.93,2,25.89,36.37,32.37,53.92,17.26,12.95-11.15,3.59-31.8-3.74-47.45-3.05-6.51,1.56-14.12,8.43-14.12h70v-76c0-6.38,6.6-10.3,11.75-7,6.39,4.16,14.67,8.67,23,10.73,17.36,4.32,29.7-19.42,30.67-38.83s-12.29-33.45-33.73-34.52a29.62,29.62,0,0,0-19.52,6.08c-5.11,3.78-12.12-.1-12.12-6.69V341.21H993.49C988.49,341.21,985.49,335.28,988.32,330.93Z" transform="translate(-48.82 -23.12)"/><path class="cls-14" d="M755.54,336.57c-4.44-7.4-8.12-18.91-4.13-34.68,7.66-30.21,33.69-28.59,46.45-22.65,10.75,5,23.31,34.49,9,55.27-3,4.39-.16,10.53,5,10.53h61.61V268.69c0-6.73,6.68-11.17,12.39-8.16a66.7,66.7,0,0,0,25.32,7.38c24.5,2.16,36.12-20.5,34.9-43.15C945,205.11,918,180.59,888.88,201.88c-5.68,4.15-13.44-.22-13.44-7.51V127H799.9c23.48,20.88,17.36,51.4-6.12,63.27s-44.92,2.15-47-24.82c-1.05-13.88,3.61-23.19,8.38-29,2.5-3,.53-7.71-3.27-7.71H691v66.18c0,7.25-8,11.55-13.33,7a29.63,29.63,0,0,0-17.6-7.42c-20.42-1.08-39.81,15.1-41.85,36.68s17.35,44.23,36.75,41c9.19-1.53,17.93-5.42,24.58-9.09,5.54-3.06,12.17,1.2,12.17,7.81v75.72h58.56C755.18,346.66,758.17,341,755.54,336.57Z" transform="translate(-48.82 -23.12)"/><path class="cls-15" d="M984.83,573.22c7.33,15.65,16.69,36.3,3.74,47.45-17.55,15.11-51.88,8.63-53.92-17.26-1.08-13.71,2.21-26.72,5.55-35.93,2.34-6.45-2.22-13.36-8.75-13.36H873.59v75c0,7-7.11,11.31-12.87,7.88-26.63-15.82-59.2-13.45-55.71,35.42,2.94,41.2,36.1,32,54.4,23.61,5.65-2.58,12,1.88,12,8.39v70h60.15c6.09,0,10-6.84,7.1-12.52-4.77-9.4-9.43-22.48-6-33.36,6.13-19.42,42.49-19.42,56-6.47,8.66,8.33,2.45,27.63-3.08,40.33-2.46,5.64,1.44,12.05,7.31,12.05h70.48V706c0-6.33,6.47-10.18,11.66-7a53.29,53.29,0,0,0,25.09,8c22.45,1.08,28.67-34.52,28.62-49.63,0-13.6-18.25-43.81-53.17-18.2-5.16,3.78-12.2,0-12.2-6.64V559.1h-70C986.39,559.1,981.78,566.71,984.83,573.22Z" transform="translate(-48.82 -23.12)"/><path class="cls-16" d="M1175.46,786c7.1,11.63,14.94,30.9.57,44.69-21.92,21-54,8.9-57.94-15.37a40.54,40.54,0,0,1,6.52-29.06c2.89-4.43,0-10.38-5.22-10.38H1063v71.73c0,6.6,7.17,10.48,12.39,6.69a30.8,30.8,0,0,1,20-6.08c21.92,1.08,35.49,15.1,34.49,34.52s-13.61,43.15-31.36,38.84c-8.47-2.06-16.94-6.58-23.48-10.73-5.26-3.35-12,.57-12,7v76h53.23c7.39,0,12-8.28,8.26-14.85-4-7.1-6.49-16.81-3-29.3,8.36-30.21,41.76-25.89,58.46-6.48,9.25,10.75,4.72,25.12-1.16,35.8-3.65,6.62.9,14.83,8.27,14.83h61.26V918.48a6.8,6.8,0,0,0-9.78-6.3c-8.11,4.15-20.39,9.27-33.53,10.51-23,2.15-27.19-28.05-28.21-47.47-.92-17.54,27.1-44.78,60.63-18.84a6.78,6.78,0,0,0,10.9-5.58V775.91h-67.47C1175.81,775.91,1172.77,781.63,1175.46,786Z" transform="translate(-48.82 -23.12)"/><path class="cls-17" d="M1183.75,1221.28c6.82,15.28,6.45,40-2.3,47.7-12.24,10.79-61.71,17-61.24-17.26.18-13.45,3.53-22.9,7.52-29.42,3.48-5.67-.33-13.14-6.73-13.14h-53.88v73.62c0,6.68,7.14,10.52,12.25,6.61,6.34-4.84,14.23-9.69,21.44-10.7,15.31-2.16,32.67,17.26,31.65,37.75s-9.19,44.24-29.61,42.08c-9.22-1-17.4-5.25-23.6-9.65-5.18-3.67-12.13.12-12.13,6.71v72.6h57.17s-28.21,56.56,8.35,60.87c33.32,3.93,54.83-1.42,43.76-46.52-1.78-7.25,3.36-14.35,10.45-14.35h56.87v-72.63c0-5-4.78-8.41-9.15-6.5a92.62,92.62,0,0,1-25.55,7.31c-18.38,2.16-29.61-14-30.63-39.92-.92-23.46,25-37.18,55.68-21.08a6.62,6.62,0,0,0,9.65-6.16v-80h-52.44C1185.38,1209.16,1181.24,1215.64,1183.75,1221.28Z" transform="translate(-48.82 -23.12)"/><path class="cls-18" d="M1148.23,1494.67a138.28,138.28,0,0,1-16.12-1.11c-9.15-1.08-15.67-5.11-19.39-12-7.76-14.37-.06-37.54,4.57-48.83h-50.17a4.55,4.55,0,0,1-4.54-4.55v-72.6a12.63,12.63,0,0,1,6.76-11.33,12,12,0,0,1,12.54.92c7.22,5.12,14.44,8.09,21.45,8.83a15.52,15.52,0,0,0,12.4-3.72c6.86-5.87,11.42-18.6,12.19-34.06a35.33,35.33,0,0,0-11.4-27.08c-4.87-4.45-10.37-6.62-15.08-6-5.19.74-11.87,4.13-19.31,9.82a11.87,11.87,0,0,1-12.57,1.25,12.66,12.66,0,0,1-7-11.47v-73.62a4.54,4.54,0,0,1,4.54-4.54H1121a12.37,12.37,0,0,1,10.88,6.48,13.44,13.44,0,0,1-.28,13.58c-4.4,7.18-6.71,16.3-6.85,27.1-.12,8.8,3.44,14.75,10.88,18.17,13.48,6.21,35.89,1.72,42.82-4.38,6.74-5.93,7.35-28.54,1.15-42.44h0a13.24,13.24,0,0,1,1-12.61,12.73,12.73,0,0,1,10.66-5.9h52.44a4.55,4.55,0,0,1,4.55,4.54v80a11.41,11.41,0,0,1-5.48,9.88,11,11,0,0,1-10.83.31c-14.7-7.71-29.37-8.59-39.25-2.34-6.63,4.19-10.1,11-9.78,19.21.58,14.64,4.56,25.83,11.23,31.53a18,18,0,0,0,14.33,4.06,88.48,88.48,0,0,0,24.26-7,10.83,10.83,0,0,1,10.3.87,11.63,11.63,0,0,1,5.22,9.79v72.63a4.55,4.55,0,0,1-4.55,4.55h-56.87a6,6,0,0,0-4.73,2.38,7.33,7.33,0,0,0-1.31,6.34c5.06,20.6,3.81,34.8-3.8,43.42C1170.29,1492.48,1159.62,1494.67,1148.23,1494.67Zm-76.57-71h52.63a4.54,4.54,0,0,1,4.06,6.57c-4.4,8.86-14.37,34.58-7.63,47,2.26,4.18,6.34,6.57,12.46,7.29,20,2.37,31.46.61,37-5.68,5.42-6.14,6-18,1.79-35.25a16.35,16.35,0,0,1,3-14.11,15.05,15.05,0,0,1,11.87-5.86h52.33v-68.09a2.55,2.55,0,0,0-1.1-2.18,1.7,1.7,0,0,0-1.68-.16,97.73,97.73,0,0,1-26.85,7.66,27,27,0,0,1-21.3-6.18c-8.73-7.46-13.71-20.63-14.4-38.07-.45-11.41,4.66-21.34,14-27.25,12.65-8,30.71-7.26,48.32,2a1.89,1.89,0,0,0,1.92,0,2.37,2.37,0,0,0,1.08-2.11v-75.49h-47.9a3.68,3.68,0,0,0-3,1.76,4.15,4.15,0,0,0-.34,4c7.24,16.23,7.32,43.47-3.44,53-9,7.94-35.09,13.88-52.63,5.81-10.74-4.94-16.33-14.12-16.17-26.54s2.93-23.14,8.2-31.73a4.27,4.27,0,0,0,.09-4.39,3.33,3.33,0,0,0-3-1.83h-49.34v69.07a3.58,3.58,0,0,0,1.93,3.33,2.76,2.76,0,0,0,3-.33c8.79-6.73,16.72-10.63,23.56-11.59,7.5-1.06,15.49,1.87,22.46,8.24a44.63,44.63,0,0,1,14.35,34.24c-.43,8.6-2.78,29.76-15.35,40.52a24.59,24.59,0,0,1-19.27,5.84c-8.58-.9-17.24-4.42-25.74-10.45a2.87,2.87,0,0,0-3.12-.26,3.53,3.53,0,0,0-1.85,3.26Z" transform="translate(-48.82 -23.12)"/><path class="cls-19" d="M1182.48,979c5.86-10.68,10.37-25.05,1.16-35.8-16.65-19.41-49.94-23.73-58.26,6.48-3.44,12.49-1,22.2,3,29.3,3.74,6.57-.87,14.85-8.22,14.85h-53.06v73.4a7.87,7.87,0,0,0,12.44,6.65c35.59-25.62,54.15,4.6,54.19,18.2,0,15.1-6.29,50.7-29.18,49.62a55,55,0,0,1-25.56-8,7.88,7.88,0,0,0-11.89,7v68.42H1122c6.52,0,10.41,7.47,6.86,13.14-4.07,6.52-7.49,16-7.67,29.42-.47,34.23,49.93,28,62.42,17.26,8.91-7.71,9.28-32.42,2.34-47.7a8.6,8.6,0,0,1,7.67-12.12h53.45V1173.3c0-9.74-5.48-44.24,12.63-37.82,2.3.81,4.41,2.11,6.63,3.14,12.36,5.72,36.94,7.2,46.68-4.75,8.7-10.66,9.36-27.4,10-40.74.92-19.05-33.08-41.47-60.73-22.67a6.76,6.76,0,0,1-10.54-5.8V993.81h-61C1183.38,993.81,1178.84,985.6,1182.48,979Z" transform="translate(-48.82 -23.12)"/><path class="cls-20" d="M884.4,910.37c7.83,4.92,18,10.19,26.77,11.29,17.36,2.15,33.69-20.5,30.63-47.47-2.6-22.93-31-43.51-57-24-5.61,4.21-13.4-.31-13.4-7.58V774.43H811.88c-6.72,0-10.39,8.13-6.31,13.77,17.12,23.66,21,60.77-22,59-38.44-1.56-31.32-34.81-24.46-53,2.11-5.61-1.75-11.7-7.46-11.7H691.7V850c0,7.08,7.5,11.27,13,7.26,6.87-5,15.37-10.06,22.71-11.09,15.31-2.16,35.72,10.79,35.72,32.36s-6.12,42.08-31.64,39.92a73.12,73.12,0,0,1-27.73-8c-5.57-2.9-12.08,1.29-12.08,7.85v75.17h54.54c7.74,0,13.07-8.38,10-15.87a74.78,74.78,0,0,1-5.38-19.26c-2.05-17.26,21.5-29,40.9-27.4,15.27,1.28,33,25.66,24.87,47.08-2.83,7.4,2.56,15.45,10.12,15.45h44.63V918.17C871.36,911.1,878.64,906.76,884.4,910.37Z" transform="translate(-48.82 -23.12)"/><path class="cls-18" d="M871.36,997.11H826.73a14.4,14.4,0,0,1-11.82-6.33,15.23,15.23,0,0,1-1.7-14c3.41-8.94,2-19.41-3.85-28.72-4.82-7.66-11.85-12.93-17.93-13.44-11.88-1-25.1,3.4-32.15,10.7-3.74,3.87-5.37,8.13-4.84,12.66a71.05,71.05,0,0,0,5.13,18.29,15.34,15.34,0,0,1-1.42,14.41,14.37,14.37,0,0,1-11.91,6.48H691.7a3.63,3.63,0,0,1-3.64-3.63V918.31A12.37,12.37,0,0,1,694,907.6a11.63,11.63,0,0,1,11.49-.36,69.49,69.49,0,0,0,26.35,7.56c8,.68,14-1,18.47-5,6.13-5.64,9.24-16.15,9.24-31.25a28.19,28.19,0,0,0-9.9-21.52c-6.29-5.47-14.6-8.24-21.69-7.24-5.46.77-12.74,4.37-21.07,10.43a11.41,11.41,0,0,1-12.09,1A12.42,12.42,0,0,1,688.06,850V782.49a3.64,3.64,0,0,1,3.64-3.63h59.95a11.38,11.38,0,0,1,9.46,5,12.53,12.53,0,0,1,1.4,11.57c-3.65,9.7-8.71,27.58-1.6,38.32,4,6.06,11.69,9.36,22.81,9.81,14.19.58,23.51-3.13,27.75-11,5.44-10.15,1.81-27.52-8.84-42.24a12.55,12.55,0,0,1-1-13.14,11.38,11.38,0,0,1,10.27-6.39h59.48a3.63,3.63,0,0,1,3.64,3.63v68.18a5.6,5.6,0,0,0,3,5.08,4.22,4.22,0,0,0,4.58-.4c12.06-9,25.75-11,38.56-5.47,13,5.59,22.73,18.44,24.27,32C947.3,890.46,942.2,907,932.09,917c-6.29,6.23-13.89,9.15-21.36,8.22-7.82-1-17.33-4.94-28.26-11.81h0a4.55,4.55,0,0,0-4.74-.15,5.44,5.44,0,0,0-2.73,4.87v75.31A3.63,3.63,0,0,1,871.36,997.11Zm-83.36-70c1.35,0,2.7.05,4,.17,8.4.7,17.39,7.14,23.47,16.81,7.09,11.27,8.72,24.09,4.49,35.18a8,8,0,0,0,.89,7.34,7.08,7.08,0,0,0,5.84,3.19h41V918.17a12.76,12.76,0,0,1,6.49-11.23,11.76,11.76,0,0,1,12.11.35h0c9.89,6.21,18.63,9.93,25.29,10.76,5.22.66,10.68-1.54,15.36-6.17,8.56-8.47,12.86-22.76,11.21-37.28-1.25-11-9.26-21.51-19.93-26.11-10.31-4.44-21.43-2.81-31.32,4.61a11.44,11.44,0,0,1-12.19,1.09,12.82,12.82,0,0,1-7-11.58V778.06H811.88a4.24,4.24,0,0,0-3.8,2.44,5.33,5.33,0,0,0,.44,5.58c10.32,14.27,17.22,35.25,9.35,49.92-3.89,7.26-13,15.72-34.45,14.85-13.58-.55-23.19-5-28.56-13.06-8.46-12.76-4.21-31.45.85-44.88a5.28,5.28,0,0,0-.57-4.88,4.21,4.21,0,0,0-3.49-1.9H695.33V850a5.11,5.11,0,0,0,2.74,4.7,4.24,4.24,0,0,0,4.52-.38c9.41-6.85,17.6-10.8,24.33-11.75,9.11-1.28,19.63,2.15,27.46,9a35.35,35.35,0,0,1,12.41,27c0,17.22-3.9,29.53-11.59,36.6-5.93,5.45-14,7.79-24,6.94a76.64,76.64,0,0,1-29.1-8.36,4.38,4.38,0,0,0-4.36.13,5.18,5.18,0,0,0-2.41,4.5v71.54h50.91a7,7,0,0,0,5.86-3.26,8.09,8.09,0,0,0,.76-7.6,77.6,77.6,0,0,1-5.63-20.21c-.8-6.7,1.57-13.12,6.82-18.56C761.83,932.17,775.08,927.16,788,927.16Z" transform="translate(-48.82 -23.12)"/><path class="cls-21" d="M1075.41,914.17c6.19,4.39,14.37,8.67,23.6,9.64,20.41,2.16,28.58-21.57,29.6-42.07S1112.28,841.83,1097,844c-7.21,1-15.1,5.86-21.43,10.71-5.11,3.91-12.25.06-12.25-6.61V774.46H992.8c-5.87,0-9.77-6.41-7.31-12.05,5.53-12.7,11.74-32,3.08-40.33-13.47-13-49.83-13-56,6.47-3.43,10.88,1.23,24,6,33.36,2.87,5.68-1,12.52-7.1,12.52H871.36v68.18c0,7.27,7.79,11.79,13.4,7.58,26-19.51,54.44,1.07,57,24,3.06,27-13.27,49.62-30.63,47.47-8.81-1.1-18.94-6.37-26.77-11.29-5.76-3.61-13,.73-13,7.8v75.31h69.28c7.93,0,13.23-8.74,9.8-16.29-4.1-9-20.88-20-19.87-28.56,2-17.26,38.41-21.54,58-18.32,14.95,2.45,7.51,27.17-1,47-3.26,7.59,1.93,16.2,9.81,16.2h65.88V920.87C1063.28,914.28,1070.23,910.5,1075.41,914.17Z" transform="translate(-48.82 -23.12)"/><path class="cls-22" d="M754.56,539.28a61.38,61.38,0,0,1-5.7-17.63C743,484,787.09,489.06,804.73,508.48c9,9.88,6,21.53.87,30.59-3.75,6.64.64,15,8,15h60V493.36c0-6.88-6.89-11.17-12.68-8a54.89,54.89,0,0,1-26.3,7c-23.48,0-29.1-33.44-29.86-44.23-.69-9.79,16.14-48.86,55.8-24.64,5.73,3.5,12.91-.86,12.91-7.86V345H811.85c-5.14,0-8-6.14-5-10.53,14.3-20.78,1.74-50.28-9-55.27-12.76-5.94-38.79-7.56-46.45,22.65-4,15.77-.31,27.28,4.13,34.68,2.63,4.38-.36,10.09-5.28,10.09H691.7v72.55c0,7.1,7.55,11.29,13.07,7.23,7.91-5.8,17.51-12.28,23-14,10.59-3.24,32.29,3.23,35.68,30.2s-13.6,46.39-35.89,45.31a67.36,67.36,0,0,1-24.37-5.81c-5.47-2.45-11.52,1.92-11.52,8.2v63.42h54.61C753.36,553.79,757.83,545.89,754.56,539.28Z" transform="translate(-48.82 -23.12)"/></g><path class="cls-2" d="M646.34,1233.88a39.2,39.2,0,0,1,4.22-40.83c89.13-114.36,553.68-713.38,625.08-866.09,79-169,38.32-212,38.32-212S1437.51,254.78,1432,350.82c-6,105.38-20,212.7-227.91,467.37C1040.61,1018.51,814,1338.92,758,1419.8c-6,8.65-18.5,7.57-23.1-2Z" transform="translate(-48.82 -23.12)"/><g class="cls-23"><path class="cls-24" d="M690.76,1420.31c6-11.27,15.15-34.31,2.63-54.55-16.34-26.41-81.54,13.17-49.07,53.9,2.39,3,.34,7.59-3.37,7.59h-67.3v-76.59c0-6.48-6.38-10.74-11.92-7.94-7.78,3.93-18.53,8.42-29.63,10.1-21.44,3.23-34.17-22.66-31.38-44.24s27.3-34.52,39.55-32.36c5.68,1,13.25,6.26,19.72,11.6,5.48,4.53,13.47.44,13.47-6.92v-74.8h65c5.33,0,8.34-6.45,5.11-10.94-13.59-18.87-7.6-42.32,11-49.47,22.46-8.63,42.87-2.16,45.94,22.65s-14,37.76-14,37.76h71.31l-2.57,75.14c-.24,7.15,7.23,11.58,12.9,7.66,7.25-5,16.82-10.09,27.28-11.6,22.46-3.24,42.88,16.18,42.88,36.68s-17.36,45.31-44.92,39.91a109.53,109.53,0,0,1-22.28-6.49c-5.45-2.35-11.41,1.94-11.41,8.17v71.68H694.57C691.19,1427.25,689.09,1423.41,690.76,1420.31Z" transform="translate(-48.82 -23.12)"/><path class="cls-25" d="M569.51,1130.51c-7.84,4.92-18,10.18-26.78,11.28-17.35,2.16-33.68-20.5-30.62-47.47,2.6-22.92,31-43.51,57-24,5.61,4.21,13.4-.31,13.4-7.59V994.56H642c6.72,0,10.39,8.13,6.31,13.78-17.12,23.65-21,60.76,22,59,38.44-1.56,31.32-34.81,24.46-53-2.11-5.61,1.75-11.69,7.46-11.69h60v67.47c0,7.08-7.5,11.28-13,7.26-6.87-5-15.38-10-22.71-11.09-15.31-2.15-35.73,10.79-35.73,32.37s6.13,42.07,31.65,39.91a73.12,73.12,0,0,0,27.73-8c5.57-2.9,12.08,1.29,12.08,7.86v75.16h-27c-12.82,0-25.5,1.33-38.33,2-3.87.2-8.49,0-10.59-3.43a7.68,7.68,0,0,1-.12-7.06c2.29-4.9,8.33-7.29,11.48-11.8a32,32,0,0,0,5.37-14.81c2-17.26-21.5-29-40.9-27.41-15.27,1.28-33,25.66-24.87,47.08,2.83,7.41-2.56,15.45-10.12,15.45H582.55v-75.3C582.55,1131.23,575.27,1126.89,569.51,1130.51Z" transform="translate(-48.82 -23.12)"/><path class="cls-26" d="M750.13,1130.59a73.12,73.12,0,0,1-27.73,8c-25.52,2.16-31.65-18.34-31.65-39.91s20.42-34.52,35.73-32.37c7.33,1,15.84,6.1,22.71,11.09,5.52,4,13-.18,13-7.26v-67.47h61.1c6.21,0,10.17-7.17,7-12.78-3.74-6.52-6.8-16.19-6.8-30.38,0-36.67,40.83-51.78,52.37-21.57,7.64,20,5.15,42,2.6,54.46-1.08,5.29,2.75,10.27,7.87,10.27h64.76v65.43c0,7.75-8.1,12.49-14.27,8.31-7.64-5.18-16.74-10.66-23-12.25-12.78-3.24-36.2,11.86-37.23,37.75s11.23,36.68,35.73,38.84a40.83,40.83,0,0,0,25-6c6.14-3.71,13.77,1.21,13.77,8.68v70.2H891.84c-7.29,0-12.49-7.45-10.33-14.81,5.12-17.44,7.49-44.41-25.38-47.3-40.31-3.55-38.9,20.93-28.15,46,3.22,7.53-2.06,16.06-9.88,16.06H762.21v-75.16C762.21,1131.88,755.7,1127.69,750.13,1130.59Z" transform="translate(-48.82 -23.12)"/><path class="cls-27" d="M878.43,992.36c2.55-12.5,5-34.43-2.6-54.46-11.54-30.21-52.37-15.1-52.37,21.57,0,14.19,3.06,23.86,6.8,30.38,3.22,5.61-.74,12.78-7,12.78h-61.1v-74.1c0-6.82-7-10.95-12.57-7.57-6.29,3.78-14.41,7.23-23.16,7.23-19.39,0-38.79-24.81-35.73-47.47s19.08-38.83,35.57-34.52c7.56,2,15.72,7.64,22.35,13.19,5.48,4.6,13.54.54,13.54-6.85V773.92h55.71c6.72,0,11.29-7.28,8.57-13.79-10.71-25.67-2.18-65.78,39.85-44.46,29.12,14.77,28.1,31.65,21.85,43.42-3.52,6.65.88,14.83,8.09,14.83h54.28l-.4,72c0,7.53,7.6,12.33,13.81,8.65a58,58,0,0,1,34-8.35c29.29,2.16,40.84,22.66,41.86,45.31s-20.42,46.39-45.94,39.92a87.73,87.73,0,0,1-28.51-13.55c-6.13-4.34-14.37.44-14.37,8.24v76.51H886.3C881.18,1002.63,877.35,997.65,878.43,992.36Z" transform="translate(-48.82 -23.12)"/><path class="cls-28" d="M1021.54,545.57c-5.87-10.68-10.38-25.05-1.16-35.8,16.66-19.42,50-23.73,58.29,6.47,3.45,12.5,1,22.21-3,29.31-3.74,6.57.87,14.85,8.23,14.85H1137v73.4a7.87,7.87,0,0,1-12.44,6.65c-35.61-25.62-54.18,4.6-54.22,18.2,0,15.1,6.29,50.7,29.19,49.62a55,55,0,0,0,25.58-8,7.89,7.89,0,0,1,11.89,7v68.42H1082c-6.52,0-10.41,7.47-6.86,13.14,4.08,6.52,7.49,16,7.68,29.42.47,34.23-50,28-62.46,17.26-8.92-7.71-9.29-32.42-2.34-47.7a8.61,8.61,0,0,0-7.68-12.12H956.89V700.88a6.78,6.78,0,0,0-10.25-6c-9.21,5.67-23.42,12.78-37.64,13.42-23.94,1.08-27.06-27-28.1-48.55-.92-19.05,33.09-41.47,60.76-22.67a6.77,6.77,0,0,0,10.55-5.81V560.4h61.08C1020.64,560.4,1025.18,552.19,1021.54,545.57Z" transform="translate(-48.82 -23.12)"/><path class="cls-29" d="M967.07,1350a76,76,0,0,0,28.71,8.24c26.43,2.23,32.77-19,32.77-41.34s-21.14-35.74-37-33.51c-7.59,1.07-16.39,6.31-23.51,11.48-5.71,4.16-13.49-.18-13.49-7.52v-69.87H891.29c-8.06,0-8.43-7.84-7.64-14.09a165.42,165.42,0,0,0,1.47-28.92c-.27-5.69-1-11.64-4-16.32-4.62-7-13.36-9.31-21.4-9.92-6.91-.52-14-.11-20.52,2.41s-12.41,7.37-15.35,14c-3.59,8.07-2.4,17.79,1.16,25.88,1.36,3.1,3.08,6.15,3.31,9.56.38,5.42-3.26,10.45-7.76,13.1-11.08,6.53-26.06,4.29-38.22,4.29H759v67.76c0,8,8.38,12.94,14.77,8.61,7.91-5.36,17.34-11.05,23.84-12.69,13.24-3.35,37.49,12.28,38.55,39.1.45,11.44-1.68,27.3-13,31.91-13,5.27-28.52,4.64-41.36-.75-3.58-1.51-7.09-3.4-10.91-4s-8.18.57-10.32,4a12.39,12.39,0,0,0-1.61,5.25c-1.72,14.84.07,31.44.07,46.46V1436h61.32c7.56,0,12.94-7.72,10.7-15.34-5.3-18.06-7.76-46,26.28-49,41.74-3.67,40.28,21.68,29.15,47.69-3.34,7.8,2.13,16.63,10.23,16.63h57.87v-77.83C954.55,1351.37,961.3,1347,967.07,1350Z" transform="translate(-48.82 -23.12)"/><path class="cls-30" d="M1260.51,326.51a78.4,78.4,0,0,0,5.7-20.3c5.88-43.37-38.23-37.52-55.87-15.16-9,11.38-6,24.79-.87,35.22,3.75,7.64-.64,17.33-8,17.33h-60v-70c0-7.93,6.89-12.86,12.68-9.23a49.58,49.58,0,0,0,26.3,8c23.48,0,29.1-38.51,29.86-50.93.69-11.26-16.14-56.25-55.8-28.36-5.73,4-12.91-1-12.91-9v-81.2h61.61c5.14,0,8-7.08,5-12.13-14.3-23.92-1.74-57.88,9-63.63,12.76-6.83,38.79-8.7,46.44,26.08,4,18.16.32,31.41-4.12,39.92-2.63,5,.36,11.62,5.27,11.62h58.57v83.53c0,8.18-7.55,13-13.07,8.33-7.91-6.69-17.51-14.15-23-16.09-10.59-3.73-32.29,3.72-35.68,34.77s13.6,53.41,35.89,52.17a60.42,60.42,0,0,0,24.37-6.69c5.47-2.83,11.52,2.21,11.52,9.44v73h-54.61C1261.7,343.21,1257.24,334.11,1260.51,326.51Z" transform="translate(-48.82 -23.12)"/><path class="cls-31" d="M1210.82,331c-8.69-13.34-17.19-37,14.37-55.17,16.44-9.44,36.75,5.37,39,31.26,1.14,12.82-1.61,22.26-4.67,28.53-2.12,4.34,1,9.49,5.6,9.49h60.52V415.6c0,7,7.18,11.36,12.92,7.86,39.66-24.22,56.48,14.85,55.79,24.64-.76,10.79-6.38,44.23-29.86,44.23a54.92,54.92,0,0,1-26.3-7c-5.78-3.15-12.68,1.14-12.68,8v60.76H1267.7c-6.54,0-11.09,6.91-8.76,13.36,3.34,9.21,6.63,22.22,5.55,35.93-2,25.89-36.37,32.37-53.91,17.26-13-11.15-3.6-31.8,3.73-47.45,3-6.51-1.56-14.12-8.42-14.12h-70v-76c0-6.38-6.61-10.3-11.76-7-6.39,4.16-14.67,8.68-22.95,10.73-17.36,4.32-29.69-19.41-30.67-38.83s12.29-33.44,33.73-34.52a29.67,29.67,0,0,1,19.53,6.08c5.11,3.78,12.12-.1,12.12-6.69V341.24h69.78C1210.65,341.24,1213.66,335.31,1210.82,331Z" transform="translate(-48.82 -23.12)"/><path class="cls-32" d="M1443.6,336.6c4.44-7.4,8.13-18.91,4.13-34.68-7.66-30.2-33.69-28.59-46.45-22.65-10.75,5-23.31,34.49-9,55.27,3,4.39.15,10.53-5,10.53h-61.62V268.73c0-6.74-6.68-11.18-12.39-8.17a66.35,66.35,0,0,1-25.32,7.38c-24.5,2.16-36.11-20.5-34.9-43.15,1-19.65,28.07-44.17,57.2-22.88,5.67,4.15,13.43-.22,13.43-7.51V127h75.54c-23.48,20.88-17.36,51.4,6.12,63.27s44.92,2.15,47-24.81c1-13.89-3.61-23.2-8.38-29-2.5-3-.53-7.71,3.27-7.71h61V195c0,7.26,7.95,11.55,13.32,7a29.75,29.75,0,0,1,17.6-7.42c20.42-1.08,39.81,15.11,41.86,36.68s-17.36,44.23-36.75,41c-9.2-1.54-17.94-5.43-24.59-9.1-5.54-3.06-12.16,1.2-12.16,7.81v75.72h-58.57C1444,346.69,1441,341,1443.6,336.6Z" transform="translate(-48.82 -23.12)"/><path class="cls-33" d="M1214.31,573.25c-7.33,15.65-16.69,36.3-3.73,47.45,17.54,15.11,51.87,8.63,53.91-17.26,1.08-13.71-2.21-26.72-5.55-35.93-2.33-6.45,2.22-13.36,8.76-13.36h57.85v75c0,7,7.12,11.31,12.88,7.88,26.63-15.82,59.19-13.44,55.7,35.42-2.94,41.2-36.1,32-54.4,23.62-5.65-2.59-12,1.87-12,8.38v70h-60.15c-6.09,0-10-6.84-7.09-12.51,4.76-9.41,9.42-22.49,6-33.37-6.12-19.41-42.49-19.41-56-6.47-8.67,8.33-2.45,27.63,3.08,40.33,2.45,5.64-1.44,12-7.32,12h-70.47V706.07c0-6.33-6.48-10.18-11.67-7a53.25,53.25,0,0,1-25.08,8c-22.46,1.08-28.67-34.52-28.63-49.63,0-13.6,18.25-43.81,53.18-18.2,5.15,3.78,12.2,0,12.2-6.64V559.13h70C1212.75,559.13,1217.36,566.74,1214.31,573.25Z" transform="translate(-48.82 -23.12)"/><path class="cls-34" d="M1023.68,786.06c-7.1,11.63-14.94,30.9-.57,44.69,21.93,21,54,8.9,57.94-15.37a40.59,40.59,0,0,0-6.51-29.06c-2.9-4.43,0-10.38,5.22-10.38h56.36v71.73c0,6.6-7.17,10.48-12.4,6.69a30.77,30.77,0,0,0-20-6.08c-21.93,1.08-35.5,15.1-34.5,34.52s13.62,43.15,31.36,38.84c8.47-2.06,16.94-6.58,23.48-10.73,5.26-3.35,12,.57,12,7v76h-53.24c-7.38,0-12-8.28-8.26-14.85,4.05-7.1,6.49-16.81,3-29.3-8.35-30.21-41.76-25.89-58.46-6.48-9.25,10.76-4.72,25.12,1.16,35.8,3.65,6.62-.9,14.83-8.27,14.83H950.84V918.51a6.79,6.79,0,0,1,9.77-6.3c8.11,4.15,20.39,9.27,33.54,10.51,23,2.15,27.19-28.05,28.21-47.47.92-17.54-27.11-44.78-60.63-18.84a6.78,6.78,0,0,1-10.9-5.57v-74.9h67.47C1023.33,775.94,1026.37,781.66,1023.68,786.06Z" transform="translate(-48.82 -23.12)"/><path class="cls-35" d="M1015.39,1221.32c-6.81,15.28-6.45,40,2.3,47.69,12.25,10.79,61.71,17,61.25-17.26-.18-13.45-3.53-22.9-7.53-29.42-3.48-5.67.33-13.13,6.73-13.13H1132v73.62c0,6.67-7.14,10.51-12.25,6.6-6.33-4.84-14.22-9.69-21.44-10.7-15.31-2.16-32.66,17.26-31.64,37.76s9.19,44.23,29.6,42.07c9.22-1,17.4-5.25,23.6-9.65,5.18-3.67,12.13.12,12.13,6.71v72.6h-57.17s28.21,56.56-8.35,60.87c-33.32,3.93-54.83-1.42-43.75-46.52,1.77-7.25-3.37-14.35-10.46-14.35H955.42v-72.63c0-5,4.78-8.41,9.15-6.5a92.25,92.25,0,0,0,25.56,7.31c18.37,2.16,29.6-14,30.62-39.91.93-23.47-25-37.19-55.68-21.08a6.63,6.63,0,0,1-9.65-6.17v-80h52.44C1013.77,1209.2,1017.91,1215.67,1015.39,1221.32Z" transform="translate(-48.82 -23.12)"/><path class="cls-18" d="M1050.92,1494.7c-11.39,0-22.06-2.19-28.78-9.79-7.62-8.62-8.86-22.83-3.8-43.43a7.37,7.37,0,0,0-1.32-6.34,6,6,0,0,0-4.73-2.38H955.42a4.55,4.55,0,0,1-4.54-4.55v-72.63a11.62,11.62,0,0,1,5.21-9.79,10.86,10.86,0,0,1,10.3-.87,88.56,88.56,0,0,0,24.27,7,18,18,0,0,0,14.33-4.06c6.66-5.7,10.65-16.89,11.22-31.52.33-8.21-3.15-15-9.78-19.22-9.88-6.25-24.55-5.37-39.25,2.34a11,11,0,0,1-10.83-.31,11.39,11.39,0,0,1-5.47-9.88v-80a4.55,4.55,0,0,1,4.54-4.55h52.44a12.73,12.73,0,0,1,10.66,5.9,13.19,13.19,0,0,1,1,12.61h0c-6.2,13.89-5.58,36.5,1.15,42.43,6.93,6.1,29.34,10.58,42.82,4.38,7.44-3.42,11-9.37,10.89-18.17-.15-10.8-2.46-19.92-6.86-27.1a13.44,13.44,0,0,1-.28-13.58,12.39,12.39,0,0,1,10.88-6.48H1132a4.55,4.55,0,0,1,4.54,4.55v73.62a12.62,12.62,0,0,1-7,11.46A11.88,11.88,0,0,1,1117,1293c-7.44-5.69-14.12-9.08-19.31-9.81-4.71-.67-10.21,1.5-15.07,6a35.3,35.3,0,0,0-11.41,27.08c.77,15.46,5.33,28.19,12.19,34.06a15.58,15.58,0,0,0,12.4,3.72c7-.74,14.23-3.71,21.45-8.83a12,12,0,0,1,12.55-.92,12.64,12.64,0,0,1,6.75,11.33v72.6a4.55,4.55,0,0,1-4.54,4.55h-50.17c4.64,11.29,12.34,34.46,4.57,48.84-3.72,6.88-10.24,10.91-19.39,12A138.26,138.26,0,0,1,1050.92,1494.7Zm-91-71h52.33a15.07,15.07,0,0,1,11.88,5.86,16.41,16.41,0,0,1,3,14.11c-4.24,17.26-3.64,29.11,1.78,35.25s17,8,37,5.68c6.12-.72,10.2-3.11,12.46-7.29,6.75-12.5-3.23-38.19-7.64-47a4.55,4.55,0,0,1,4.06-6.57h52.63v-68.06a3.54,3.54,0,0,0-1.84-3.26,2.87,2.87,0,0,0-3.12.26c-8.51,6-17.17,9.55-25.75,10.46a24.63,24.63,0,0,1-19.27-5.85c-12.57-10.76-14.92-31.92-15.35-40.52a44.63,44.63,0,0,1,14.35-34.24c7-6.37,15-9.3,22.47-8.24,6.83,1,14.76,4.86,23.56,11.59a2.76,2.76,0,0,0,3,.33,3.58,3.58,0,0,0,1.92-3.32v-69.08h-49.34a3.33,3.33,0,0,0-3,1.83,4.29,4.29,0,0,0,.09,4.39c5.27,8.59,8,19.26,8.2,31.73s-5.42,21.6-16.17,26.54c-17.54,8.07-43.61,2.13-52.62-5.81-10.76-9.48-10.69-36.72-3.45-53h0a4.13,4.13,0,0,0-.34-4,3.68,3.68,0,0,0-3-1.76H960v75.49a2.35,2.35,0,0,0,1.09,2.11,1.87,1.87,0,0,0,1.91,0c17.61-9.23,35.67-10,48.33-2,9.35,5.91,14.45,15.84,14,27.25-.69,17.44-5.67,30.61-14.4,38.07a27,27,0,0,1-21.29,6.18,97.52,97.52,0,0,1-26.85-7.66,1.71,1.71,0,0,0-1.69.16,2.55,2.55,0,0,0-1.1,2.18Zm55.43-202.35h0Z" transform="translate(-48.82 -23.12)"/><path class="cls-36" d="M1016.67,979c-5.87-10.68-10.38-25-1.16-35.8,16.64-19.41,49.93-23.73,58.25,6.48,3.45,12.49,1,22.2-3,29.3-3.74,6.57.87,14.85,8.22,14.85H1132v73.41a7.87,7.87,0,0,1-12.43,6.64c-35.59-25.62-54.15,4.6-54.19,18.2-.05,15.1,6.28,50.7,29.17,49.62a55.06,55.06,0,0,0,25.57-8,7.88,7.88,0,0,1,11.88,7v68.43h-54.91c-6.52,0-10.4,7.46-6.86,13.13,4.08,6.52,7.49,16,7.67,29.42.48,34.23-49.93,28-62.41,17.26-8.92-7.71-9.29-32.41-2.35-47.69a8.6,8.6,0,0,0-7.67-12.12H952.05v-35.87c0-9.74,5.48-44.24-12.64-37.82-2.3.82-4.41,2.12-6.63,3.14-12.36,5.72-36.94,7.2-46.68-4.74-8.7-10.67-9.36-27.41-10-40.75-.91-19.05,33.08-41.47,60.73-22.67a6.76,6.76,0,0,0,10.55-5.8V993.84h61C1015.77,993.84,1020.3,985.63,1016.67,979Z" transform="translate(-48.82 -23.12)"/><path class="cls-37" d="M1314.74,910.4c-7.83,4.92-18,10.19-26.77,11.29-17.36,2.15-33.69-20.5-30.63-47.47,2.61-22.92,31-43.51,57-24,5.62,4.2,13.4-.32,13.4-7.59V774.46h59.48c6.73,0,10.4,8.13,6.31,13.78-17.11,23.65-21,60.76,22,59,38.45-1.56,31.32-34.81,24.46-53-2.11-5.61,1.75-11.7,7.46-11.7h60V850c0,7.08-7.51,11.28-13,7.26-6.87-5-15.37-10.06-22.7-11.09C1456.4,844,1436,857,1436,878.53s6.12,42.08,31.64,39.92a73.06,73.06,0,0,0,27.73-8c5.58-2.9,12.09,1.29,12.09,7.85v75.17H1452.9c-7.74,0-13.07-8.38-10-15.87a75.22,75.22,0,0,0,5.38-19.25c2-17.27-21.51-29-40.9-27.41-15.28,1.28-33,25.66-24.87,47.08,2.82,7.4-2.57,15.45-10.12,15.45h-44.64V918.2C1327.78,911.13,1320.5,906.79,1314.74,910.4Z" transform="translate(-48.82 -23.12)"/><path class="cls-18" d="M1507.45,997.14H1452.9a14.34,14.34,0,0,1-11.9-6.48,15.34,15.34,0,0,1-1.43-14.41A70.54,70.54,0,0,0,1444.7,958c.53-4.53-1.09-8.79-4.84-12.66-7-7.3-20.27-11.7-32.15-10.7-6.07.51-13.11,5.78-17.93,13.44-5.86,9.32-7.26,19.78-3.85,28.72a15.2,15.2,0,0,1-1.7,14,14.38,14.38,0,0,1-11.81,6.33h-44.64a3.62,3.62,0,0,1-3.63-3.63V918.2a5.45,5.45,0,0,0-2.74-4.87,4.53,4.53,0,0,0-4.73.15c-10.94,6.87-20.45,10.84-28.26,11.81-7.48.93-15.07-2-21.37-8.22-10.11-10-15.21-26.58-13.32-43.26,1.54-13.52,11.29-26.36,24.28-32,12.8-5.52,26.49-3.58,38.55,5.47a4.22,4.22,0,0,0,4.58.4,5.6,5.6,0,0,0,3-5.08V774.46a3.63,3.63,0,0,1,3.63-3.63h59.48a11.38,11.38,0,0,1,10.27,6.39,12.59,12.59,0,0,1-1,13.15c-10.65,14.71-14.29,32.08-8.84,42.23,4.23,7.89,13.55,11.6,27.75,11,11.11-.45,18.78-3.75,22.8-9.81,7.11-10.74,2-28.61-1.6-38.31a12.58,12.58,0,0,1,1.4-11.58,11.38,11.38,0,0,1,9.46-5h60a3.64,3.64,0,0,1,3.63,3.63V850a12.42,12.42,0,0,1-6.71,11.18,11.42,11.42,0,0,1-12.09-1c-8.32-6.05-15.61-9.66-21.07-10.43-7.08-1-15.4,1.77-21.68,7.24a28.16,28.16,0,0,0-9.91,21.52c0,15.1,3.11,25.62,9.24,31.25,4.44,4.07,10.47,5.72,18.47,5.05a69.36,69.36,0,0,0,26.36-7.56,11.61,11.61,0,0,1,11.48.36,12.38,12.38,0,0,1,5.91,10.72v75.16A3.63,3.63,0,0,1,1507.45,997.14Zm-96.31-69.95c12.92,0,26.17,5,33.95,13.06,5.26,5.44,7.62,11.86,6.83,18.56a77.78,77.78,0,0,1-5.63,20.21,8.07,8.07,0,0,0,.75,7.6,7,7,0,0,0,5.86,3.26h50.91V918.35a5.18,5.18,0,0,0-2.41-4.51,4.38,4.38,0,0,0-4.36-.13,76.46,76.46,0,0,1-29.1,8.36c-10,.85-18.06-1.49-24-6.94-7.69-7.07-11.59-19.38-11.59-36.6a35.35,35.35,0,0,1,12.4-27c7.83-6.8,18.35-10.23,27.46-8.95,6.73.95,14.92,4.91,24.34,11.75a4.22,4.22,0,0,0,4.52.38,5.12,5.12,0,0,0,2.73-4.7V786.16h-56.32a4.21,4.21,0,0,0-3.49,1.9,5.31,5.31,0,0,0-.56,4.88c5,13.43,9.3,32.13.85,44.88-5.38,8.12-15,12.51-28.57,13.06-21.41.88-30.55-7.59-34.45-14.85-7.87-14.67-1-35.65,9.36-49.92a5.35,5.35,0,0,0,.43-5.58,4.25,4.25,0,0,0-3.8-2.43h-55.85v64.54a12.82,12.82,0,0,1-7,11.58,11.44,11.44,0,0,1-12.19-1.09c-9.89-7.42-21-9-31.32-4.61-10.67,4.6-18.67,15.09-19.93,26.11-1.65,14.52,2.65,28.81,11.21,37.28,4.68,4.63,10.13,6.82,15.36,6.17,6.66-.83,15.41-4.55,25.29-10.75h0a11.78,11.78,0,0,1,12.12-.36,12.77,12.77,0,0,1,6.48,11.23v71.68h41a7.05,7.05,0,0,0,5.83-3.19,7.94,7.94,0,0,0,.89-7.34c-4.23-11.09-2.59-23.91,4.49-35.17,6.08-9.68,15.08-16.12,23.47-16.82C1408.44,927.24,1409.79,927.19,1411.14,927.19Z" transform="translate(-48.82 -23.12)"/><path class="cls-38" d="M1123.74,914.2c-6.2,4.39-14.38,8.67-23.6,9.64-20.42,2.16-28.59-21.57-29.61-42.07s16.34-39.91,31.65-37.76c7.21,1,15.1,5.87,21.43,10.71,5.12,3.91,12.26.06,12.26-6.61V774.49h70.47c5.88,0,9.77-6.41,7.32-12-5.53-12.7-11.75-32-3.08-40.33,13.46-12.94,49.83-12.94,56,6.47,3.43,10.88-1.23,24-6,33.37-2.88,5.67,1,12.51,7.09,12.51h60.15v68.18c0,7.27-7.78,11.79-13.4,7.59-26-19.52-54.43,1.07-57,24-3.06,27,13.27,49.62,30.63,47.47,8.81-1.1,18.94-6.37,26.77-11.29,5.76-3.61,13,.73,13,7.8v75.31H1258.5c-7.93,0-13.23-8.74-9.8-16.29,4.1-9,20.88-20,19.87-28.56-2-17.26-38.4-21.53-58-18.32-14.95,2.45-7.52,27.17,1,47,3.25,7.59-1.93,16.2-9.82,16.2h-65.87V920.9C1135.87,914.31,1128.92,910.53,1123.74,914.2Z" transform="translate(-48.82 -23.12)"/><path class="cls-39" d="M1444.58,539.31a61.38,61.38,0,0,0,5.7-17.63c5.89-37.67-38.23-32.59-55.86-13.17-9,9.89-6,21.54-.87,30.59,3.74,6.64-.65,15-8,15h-60V493.39c0-6.88,6.9-11.17,12.68-8a54.92,54.92,0,0,0,26.3,7c23.48,0,29.1-33.44,29.86-44.23.69-9.79-16.13-48.86-55.79-24.64-5.74,3.5-12.92-.86-12.92-7.86V345.07h61.62c5.13,0,8-6.14,5-10.53-14.31-20.78-1.75-50.27,9-55.27,12.76-5.94,38.79-7.55,46.45,22.65,4,15.77.31,27.28-4.13,34.68-2.63,4.38.36,10.09,5.28,10.09h58.57v72.55c0,7.11-7.55,11.29-13.08,7.23-7.91-5.8-17.5-12.28-23-14-10.58-3.24-32.29,3.23-35.67,30.2s13.59,46.39,35.89,45.31a67.36,67.36,0,0,0,24.36-5.81c5.47-2.45,11.53,1.93,11.53,8.2v63.42h-54.61C1445.78,553.82,1441.31,545.92,1444.58,539.31Z" transform="translate(-48.82 -23.12)"/></g><path class="cls-40" d="M231.57,1192.14C177,1109,155,1016.17,163.93,934.62c8-72.91-12.06-146.38-57.09-204.18q-7.09-9.11-13.61-19c-65.63-100-57.58-221.24,18-270.85s190-8.77,255.67,91.2A280.63,280.63,0,0,1,397.94,595c23.31,68.38,70.75,126.31,134.65,160.08,57.09,30.19,110.3,77.87,151.22,140.2,61,93,81.29,198,63.2,285.93a277.67,277.67,0,0,0-2.15,101c9.16,55.61-8.61,109-51,136.87-45.77,30.05-107.42,21.93-156.9-15.28-28-21.06-59.79-36.34-93.37-46.42C364.28,1333.6,286.75,1276.19,231.57,1192.14Z" transform="translate(-48.82 -23.12)"/><path class="cls-41" d="M154.57,564.31c33.51,72.55,69.32,144,105.88,215,9.13,17.76,18.54,35.38,27.9,53l14,26.46,14.27,26.35c9.57,17.53,18.91,35.2,28.68,52.62l29.33,52.27c20,34.59,39.69,69.35,60.33,103.57,10.29,17.13,20.25,34.45,30.89,51.37l31.68,50.88c42.93,67.42,87.57,133.78,135.49,197.76l2.77-2-34-49.23-8.53-12.28-8.23-12.5-16.39-25-16.44-25c-5.5-8.32-10.69-16.84-16-25.26-10.6-16.89-21.34-33.7-31.82-50.67Q442.06,1089.46,383,985.33c-19.33-34.91-39-69.64-58-104.68l-14.39-26.24-14.17-26.36c-9.46-17.57-18.91-35.14-28.19-52.81q-28.29-52.75-55.79-105.93-27.77-53-54.75-106.49Z" transform="translate(-48.82 -23.12)"/><path class="cls-42" d="M868,930.94c-18-112.51-69.71-208.29-138.11-270.8A331.22,331.22,0,0,1,623.2,442.8q-1.07-13.19-3.19-26.6C598.41,280.89,500.92,184,402.26,199.71S241.13,337.91,262.72,473.22a332.62,332.62,0,0,0,22.13,77.54c32.32,76,37.17,161.62,10.54,239.31-23.8,69.43-31.32,150.76-17.86,235.11,20.08,125.8,82.41,230.69,163,291.54A318.76,318.76,0,0,1,518.08,1401c34.25,54.29,88.76,86.09,144.15,77.25C722,1468.68,766,1414.53,778.38,1345c7-39.37,21.37-76.72,41.13-111C866.15,1152.93,886.15,1044.69,868,930.94Z" transform="translate(-48.82 -23.12)"/><path class="cls-41" d="M459.78,338.14c27.16,87.37,51.6,175.54,75.15,264,5.89,22.1,11.45,44.3,17.07,66.47l8.43,33.27,8.16,33.34c5.35,22.24,11,44.41,16.12,66.72l15.35,66.91c9.68,44.74,19.73,89.39,28.61,134.31,4.47,22.44,9.36,44.81,13.39,67.34L654.45,1138c15.65,90.22,29.11,180.87,38.12,272l-3.79.39-9.24-67.94-2.28-17-2.69-16.93-5.43-33.85-5.37-33.84c-1.77-11.29-3.94-22.51-5.89-33.77-4-22.49-7.93-45-12.12-67.47-17.32-89.75-35.79-179.28-56-268.42-10.45-44.49-20.54-89.07-31.29-133.49l-8-33.34-8.25-33.28c-5.48-22.18-11-44.37-16.67-66.5Q509,538.06,491.48,471.75q-17.21-66.37-35.34-132.5Z" transform="translate(-48.82 -23.12)"/><rect class="cls-43" x="290.34" y="576.09" width="169.93" height="169.93" rx="12.7" transform="translate(701.78 1298.99) rotate(180)"/><path class="cls-44" d="M941.42,1479.81s8.2,12.93,10.26,49.14a5.9,5.9,0,0,1-5.86,6.24H881.66a3.77,3.77,0,0,1-3.59-5c3.76-11.13,15.12-38.26,40.49-53.76Z" transform="translate(-48.82 -23.12)"/><path class="cls-45" d="M944.2,1455.28l-3.63,30.43a5.73,5.73,0,0,1-5,5,50.8,50.8,0,0,1-13.57-.13,9.41,9.41,0,0,1-7.75-9.33v-29.37Z" transform="translate(-48.82 -23.12)"/><path class="cls-46" d="M782.67,1476.46a89.58,89.58,0,0,1,12,45.29,11.33,11.33,0,0,1-11.4,11.08H683.64a4.76,4.76,0,0,1-2.74-8.67c18.85-13.25,55.92-38,82.72-47.7Z" transform="translate(-48.82 -23.12)"/><path class="cls-47" d="M792.93,1443.59l-7.74,37.58a7.75,7.75,0,0,1-9.16,6.1,28.18,28.18,0,0,1-8.76-3.66,8.91,8.91,0,0,1-4-9.08l8-45.53Z" transform="translate(-48.82 -23.12)"/><path class="cls-48" d="M930,921.1s26.91,23.72,32,52.27-14.35,492.54-14.35,492.54-26.91,4.48-40.78-3.93c0,0-16.46-301.13-29-370.71,0,0-65.6,311.93-83.77,368.29,0,0-25.93,3.15-34.29-1.78,0,0,17.18-404.35,38.77-476.23Z" transform="translate(-48.82 -23.12)"/><path class="cls-49" d="M878.65,1081.48a2.91,2.91,0,0,0,2.82-2.18l11.15-42.75,23.74-15.23a2.92,2.92,0,0,0-3.16-4.92l-24.7,15.85a3,3,0,0,0-1.25,1.72l-11.43,43.85a2.93,2.93,0,0,0,2.09,3.57A3.18,3.18,0,0,0,878.65,1081.48Z" transform="translate(-48.82 -23.12)"/><path class="cls-50" d="M664.39,653c113.3-9.4,142.91,14,142.91,14l-54.44,86s-111.33-2.2-191.1-63.68c14.93-16.08,25.3-33.85,32-47.68A149.9,149.9,0,0,0,664.39,653Z" transform="translate(-48.82 -23.12)"/><path class="cls-51" d="M487,486.69a3.48,3.48,0,0,1,6.62-1.33L508,516.21a32.11,32.11,0,0,1,2.57,19.12l-5.07,18A31,31,0,0,0,511.86,578c13.28,16.6,41.57,46.93,81.85,63.67-6.65,13.83-17,31.6-32,47.68-29.27-22.56-54.29-53.09-68-94.44a15.15,15.15,0,0,1-10.69-15.07Z" transform="translate(-48.82 -23.12)"/><path class="cls-52" d="M627.1,702.83c39.89-43,115.86-62.4,159.84-70.37A40.35,40.35,0,0,1,832,658c19.79,53.21,73.63,191.64,84.06,215.44,8.56,19.52,17.5,38.58,23.18,50.5A14.3,14.3,0,0,1,932.6,943c-37,17.84-103.59,38-130.59,45.9A9.26,9.26,0,0,1,790.16,980,29,29,0,0,0,786,965.13L683.79,794.75c-63.73,70.66-119.53,77.12-162.4,61.66a322.24,322.24,0,0,0,14.18-67C598.91,778.6,627.1,702.83,627.1,702.83Z" transform="translate(-48.82 -23.12)"/><path class="cls-53" d="M430.89,777.59l11.43-15.24c37,25.41,67.93,31.44,93.25,27.1a322.24,322.24,0,0,1-14.18,67C464.91,836,430.89,777.59,430.89,777.59Z" transform="translate(-48.82 -23.12)"/><path class="cls-54" d="M439,777.87l-64.39,2.51-59.29-33.12c8.51-5.33,56.64,5.57,56.64,5.57s50.3-7.61,63.92-7.62c11.31,0,9.69,16.24,8.82,21.76-.18,1.12-.32,1.8-.32,1.8Z" transform="translate(-48.82 -23.12)"/><path class="cls-55" d="M726.44,553.53l34,82.9s-39,27-70.45,24.45l-17-74.55Z" transform="translate(-48.82 -23.12)"/><path class="cls-56" d="M669.05,497c-.78,1.1-24.58,87.08-24.58,87.08l49.39,12.55,34.66-78.14S682.08,478.55,669.05,497Z" transform="translate(-48.82 -23.12)"/><path class="cls-57" d="M709.93,530.37l-15,42.56a6,6,0,0,1-.79,1.53c-2,2.89-9.78,12.35-19,3.83-8.34-7.72-16.06-14.65-23.2-15.91a6.3,6.3,0,0,0-7.17,4.52c-2.16,7.82-6.7,25.51-8.31,41.49a6.3,6.3,0,0,0,5.12,6.78c9.64,1.83,30.09,5.12,47.17,3.92a6.29,6.29,0,0,0,5.31-3.66c4.71-10.28,19.12-41.48,24.48-49.55,5-7.57,17.37-7.36,22.55-6.9a6.2,6.2,0,0,0,4.64-1.52c4.53-4,13.14-14.1,1-26.22a6.32,6.32,0,0,1,.15-9.09c5.2-4.9,10.77-13.57,2.1-24.34-8.81-10.94-20.45-9.19-27.57-6.59a6.32,6.32,0,0,1-7.6-2.81,5,5,0,0,0-5.14-2.4,6.22,6.22,0,0,1-6.63-6.37c.13-7-2.38-15.86-14.54-19.65-21.57-6.71-35,14.13-36.35,29.68s22.47,21.5,36.46,20.45c10.64-.79,18.55,9.75,21.72,14.85A6.27,6.27,0,0,1,709.93,530.37Z" transform="translate(-48.82 -23.12)"/><path class="cls-58" d="M712.92,581.33s3.48-27,14.71-28.32,22.17,7.9,11,23.06C724.74,594.92,712.92,581.33,712.92,581.33Z" transform="translate(-48.82 -23.12)"/><path class="cls-59" d="M98.77,1524H87.25a6.65,6.65,0,0,1-6.64-6.5l-4.88-213.64a6.66,6.66,0,0,1,6.65-6.8h19.36a6.65,6.65,0,0,1,6.65,6.74l-3,213.64A6.65,6.65,0,0,1,98.77,1524Z" transform="translate(-48.82 -23.12)"/><path class="cls-60" d="M310.78,1524H299.26a6.54,6.54,0,0,1-6.64-6.27l-4.88-206a6.53,6.53,0,0,1,6.65-6.56h19.36a6.53,6.53,0,0,1,6.65,6.5l-3,206A6.54,6.54,0,0,1,310.78,1524Z" transform="translate(-48.82 -23.12)"/><path class="cls-61" d="M23.7,1274H260.92a12.93,12.93,0,0,1,12.93,12.93v41.75a0,0,0,0,1,0,0H23.7a0,0,0,0,1,0,0V1274A0,0,0,0,1,23.7,1274Z"/><path class="cls-62" d="M123.05,1351.74H80.24a8.13,8.13,0,0,1-8.13-7.7L59.74,1111.8a11.14,11.14,0,0,1,11.71-11.72l1,.05a42.31,42.31,0,0,1,40,40.14Z" transform="translate(-48.82 -23.12)"/><path class="cls-63" d="M278.36,1329.78c34.82,48,24.81,99.81-45,134.66-4.92-4.47-6.3-8.65-1.36-18.11,55.65-40.06,47.13-76.43,12.92-99.51Z" transform="translate(-48.82 -23.12)"/><path class="cls-64" d="M205.64,1351.63c27.89,49.73,21.79,88.55-58.36,114.25-4.39-11.34-2.57-17.64,4.24-19.87,60.66-30.48,45.19-54.43,15.07-80.28Z" transform="translate(-48.82 -23.12)"/><path class="cls-65" d="M147.29,1448.37c-2.29,9.6-1.23,14.57,6.05,16.56,4.39,15.72,2,24.43-5.55,27.89-9.35-13.3-16.44-27.56-18.73-43.89C136,1446.36,145.63,1444.12,147.29,1448.37Z" transform="translate(-48.82 -23.12)"/><path class="cls-66" d="M232,1446.33c-2.27,9.55-1.22,14.49,6,16.46,4.36,15.64,2,24.29-5.52,27.73-9.29-13.22-16.34-27.4-18.62-43.63C220.76,1444.33,230.33,1442.11,232,1446.33Z" transform="translate(-48.82 -23.12)"/><path class="cls-67" d="M130,1255.26c-4.75,32.44,10.63,80.58,36.18,114.31,18.12,2,37.78.29,53-9.27l-19.23-43.59L209,1314l37.67,38.62c17,2.5,28.32-6.12,41.59-14.81-14.77-32.56-48.36-47.77-57-93.25Z" transform="translate(-48.82 -23.12)"/><path class="cls-68" d="M242.11,1257.07c-33,10.48-72.69,11.55-116.53,6.87l7.08-89.4s-8.71-62.29,31-69.2c23.41-6.37,23.41-6.31,23.41-6.31s29.95-4.66,55,6.4,45.74,77.5,45.74,77.5l-30,12-7.63-24.74Z" transform="translate(-48.82 -23.12)"/><path class="cls-69" d="M254.59,1040.72s-3.21-9.08,5-10.7.37,22.48.37,22.48Z" transform="translate(-48.82 -23.12)"/><path class="cls-70" d="M189,1065.34l-3.24,35.57s18.77,11,34.92,1.38l-2.87-31.07Z" transform="translate(-48.82 -23.12)"/><path class="cls-71" d="M258.39,1040.05s8.22-14.09-2.26-21.49c0,0,5.62-12.4-5-21.37,0,0-16.93-39.63-52.47-11.83,0,0-30.61-9.1-40.45,29,0,0-10.18,5.71-5.52,19.93,0,0-1.14,52.75,45,35Z" transform="translate(-48.82 -23.12)"/><path class="cls-72" d="M243.17,1010.59s39.16,59-1.3,77.08c-38.18,17.06-54.27-22.12-54.27-22.12s-16.8-17.4-11.16-30.79S233.63,1003.26,243.17,1010.59Z" transform="translate(-48.82 -23.12)"/><path class="cls-73" d="M183.78,1056.26s38.32-12.14,35.05-34.77c0,0,6.64.66,8.67-7.16,0,0,18.81,16.92,23.77,5.09,0,0-3.29-29.3-26.27-19.8s-44,19.15-50.12,25.9S163.62,1048.64,183.78,1056.26Z" transform="translate(-48.82 -23.12)"/><path class="cls-74" d="M192.62,1070.82l-6.81-18.72s-13.15-6-11.42,4.14S187.94,1072,192.62,1070.82Z" transform="translate(-48.82 -23.12)"/><path class="cls-75" d="M649.26,1538.33h19.88c6.23,0,11.32-4.57,11.47-10.28L689,1189.94c.15-5.9-5-10.76-11.47-10.76H644.13c-6.39,0-11.56,4.8-11.47,10.67l5.13,338.1C637.88,1533.71,643,1538.33,649.26,1538.33Z" transform="translate(-48.82 -23.12)"/><path class="cls-76" d="M217.38,1538.84h22.21c5.59,0,10.15-4.09,10.28-9.21l8.47-340.29c.13-5.29-4.51-9.64-10.28-9.64H212.21c-5.73,0-10.35,4.3-10.27,9.56l5.16,340.29C207.17,1534.7,211.75,1538.84,217.38,1538.84Z" transform="translate(-48.82 -23.12)"/><rect class="cls-77" x="190.87" y="1179.18" width="508.07" height="61.39" rx="13.28" transform="translate(841 2396.64) rotate(180)"/><path class="cls-78" d="M223.16,1178l-1.59-31.63,51-7s16.37-70.92,33.74-77.74,15-1.33,14.35.16-10.76,5.37-10.76,5.37,11.46-2.39,10.57,1-12.61,7.86-12.61,7.86,13.91-2,11.05,1.41-10.24,4.08-10.24,4.08,9.33-2.29,8.19,1.34-9.54,6.51-9.54,6.51.43,9.75-1.47,14.48-9.09,57.16-17.49,63.81S223.16,1178,223.16,1178Z" transform="translate(-48.82 -23.12)"/><path class="cls-79" d="M225.27,1182.32c-2.75-14-4.56-27-2.26-36.18-24.73-5-48.6-10.28-62.53-18.28-26.39-20.29-27.76,11.83-27.82,46.68C161.82,1181.6,192.87,1183.74,225.27,1182.32Z" transform="translate(-48.82 -23.12)"/><rect class="cls-80" x="323.66" y="1076.61" width="101.36" height="101.36" rx="11.29" transform="translate(699.86 2231.46) rotate(180)"/><rect class="cls-81" x="424.29" y="1076.61" width="101.36" height="101.36" rx="10.36" transform="translate(901.11 2231.46) rotate(180)"/><rect class="cls-82" x="525.65" y="1076.61" width="101.36" height="101.36" rx="9.87" transform="translate(1103.83 2231.46) rotate(180)"/><rect class="cls-83" x="528.47" y="975.26" width="101.36" height="101.36" rx="9.87" transform="translate(1109.46 2028.75) rotate(180)"/><rect class="cls-84" x="429.45" y="976.84" width="101.36" height="101.36" rx="9.27" transform="translate(911.44 2031.91) rotate(180)"/><rect class="cls-85" x="328.1" y="975.26" width="101.36" height="101.36" rx="12.7" transform="translate(708.73 2028.75) rotate(180)"/></g></svg>